<?xml version="1.0" encoding="utf-8"?>
<!-- Generator: Adobe Illustrator 24.1.1, SVG Export Plug-In . SVG Version: 6.00 Build 0)  -->
<svg version="1.1" id="레이어_1" xmlns="http://www.w3.org/2000/svg" xmlns:xlink="http://www.w3.org/1999/xlink" x="0px"
	 y="0px" viewBox="0 0 800 800" style="enable-background:new 0 0 800 800;" xml:space="preserve">
<style type="text/css">
	.st0{fill:#F8F7F8;}
	.st1{fill:#FCE9EA;}
	.st2{fill:#D5E270;}
	.st3{fill:#FEFEFE;}
	.st4{fill:#ED7667;}
	.st5{fill:#F08E83;}
</style>
<path class="st0" d="M400,0C179.1,0,0,179,0,399.9C0,536,68,656.2,171.8,728.4c19.7-68.4,68.5-120.4,135-145.6
	c-13,15.3,1.4,127,22.7,111.9l35.2-24.7l35.2-24.8l-2.3-1.6l-32.8-23.1l-51-37.9c-0.7-0.5-1.5-0.9-2.3-1.2c-0.1,0-0.3-0.1-0.4-0.1
	l-1,0.3c3.4-1.2,6.8-2.4,10.3-3.5c1-0.3,1.9-0.6,2.9-0.9c6.7-2,13.5-3.7,20.4-5.2c1-0.2,2.1-0.4,3.1-0.6c3.7-0.7,7.4-1.4,11.1-2
	c2.5-0.4,5.1-0.7,7.6-1.1c1.1-0.1,2.2-0.3,3.3-0.4c3.7-0.4,7.3-0.8,11-1.1h40.5c3.7,0.3,7.3,0.6,10.9,1.1c1.1,0.1,2.3,0.3,3.4,0.4
	c3.8,0.5,7.5,1,11.2,1.7c2.5,0.4,4.9,0.9,7.3,1.3c1.1,0.2,2.2,0.4,3.3,0.7c3.4,0.7,6.7,1.5,10,2.3l0.3,0.1c3.4,0.9,6.7,1.8,10,2.8
	c1,0.3,2.1,0.7,3.1,1c2.3,0.7,4.5,1.5,6.8,2.2c1.1,0.4,2.3,0.8,3.4,1.2c-0.4-0.2-0.8-0.3-1.3-0.4c-0.1,0-0.1,0-0.2,0.1
	c-0.9,0.2-1.8,0.6-2.8,1.4L435,620.6l-32.9,23.1l-2.3,1.6l35.2,24.8l35.2,24.7c21.5,15.1,35.7-98.2,22.2-112.2
	c66.9,25,116,77.1,135.8,145.8C732.1,656.1,800,536,800,399.9C800,179,620.9,0,400,0z M400,566.8c-101.9,0-184.8-80.9-188.2-182
	c-0.1-0.1-0.2-0.1-0.3-0.2c-3.9-72.2,33.5-127.9,81.1-160.7c0.9-0.6,1.8-1.3,2.6-1.8c0.9-0.6,1.8-1.2,2.7-1.7
	c1.7-1.1,3.4-2.2,5.1-3.2s3.4-2,5.1-2.9c0.8-0.4,1.5-0.9,2.3-1.3c27.1-14.9,56.1-22.7,82.1-22.5c2.5-0.1,5-0.2,7.5-0.2
	c2.4,0,4.8,0.1,7.2,0.2c20.7-0.1,43.4,4.8,65.5,14.4c19.5,8.2,37.5,19.6,53.2,33.8c38.2,33.7,65.7,83.7,62.3,146l-0.2,0.1
	C584.9,485.8,501.9,566.8,400,566.8L400,566.8z"/>
<path class="st1" d="M308.1,214.1c0.8-0.4,1.5-0.9,2.3-1.3C309.6,213.2,308.9,213.7,308.1,214.1z M407.2,190.4
	c-2.4-0.1-4.8-0.2-7.2-0.2c-2.5,0-5,0.1-7.5,0.2c2.5,0,4.9,0.1,7.3,0.3C402.2,190.5,404.7,190.4,407.2,190.4z M297.9,220.3
	c1.7-1.1,3.4-2.2,5.1-3.2C301.3,218.1,299.6,219.2,297.9,220.3z M292.5,223.9c0.9-0.6,1.8-1.3,2.6-1.8
	C294.3,222.6,293.4,223.3,292.5,223.9z M472.8,204.8c19.4,8.4,37.4,19.8,53.2,33.8C510.3,224.4,492.3,213,472.8,204.8z M368.9,302.2
	c-36.2,63.5-97.5,119.8-157.1,82.6c3.3,101.1,86.3,182,188.2,182s184.9-81,188.2-182.1C538.4,415.8,407.7,370.7,368.9,302.2
	L368.9,302.2z"/>
<path class="st2" d="M466.5,574.4l0.3,0.1L466.5,574.4z M488.6,581.2c0.1,0,0.1,0,0.2-0.1c0.4,0.1,0.8,0.3,1.3,0.4
	c-1.1-0.4-2.3-0.8-3.4-1.2c0.7,0.2,1.3,0.5,2,0.7C488.6,581.2,488.6,581.2,488.6,581.2L488.6,581.2z M453.2,571.4
	c1.1,0.2,2.2,0.4,3.3,0.7C455.4,571.8,454.3,571.6,453.2,571.4z M492.5,582.6c13.5,14-0.7,127.4-22.2,112.2l-35.2-24.7l-35.2-24.8
	l-35.2,24.8l-35.2,24.7c-21.3,15-35.7-96.7-22.7-111.9c-66.5,25.1-115.3,77.1-135,145.6c64.7,45,143.4,71.5,228.2,71.5
	c84.9,0,163.6-26.4,228.3-71.5C608.6,659.7,559.4,607.6,492.5,582.6z M313.3,580.5c-1.1,0.4-2.2,0.8-3.3,1.2l1-0.3
	c0.1,0,0.3,0.1,0.4,0.1l-0.1-0.2C312,580.9,312.7,580.7,313.3,580.5L313.3,580.5z"/>
<path class="st2" d="M400,643.7c-0.8,0-1.6,0-2.4-0.1l2.3,1.6l2.3-1.6C401.5,643.6,400.7,643.7,400,643.7L400,643.7z M476.8,577.2
	c1,0.3,2.1,0.7,3.1,1C478.8,577.9,477.8,577.5,476.8,577.2z M343.7,572.1c1-0.2,2.1-0.4,3.1-0.6
	C345.7,571.6,344.7,571.8,343.7,572.1z M431.3,568c1.1,0.1,2.3,0.3,3.4,0.4C433.5,568.3,432.4,568.1,431.3,568z M320.3,578.2
	c1-0.3,1.9-0.6,2.9-0.9C322.3,577.5,321.3,577.9,320.3,578.2z M365.5,568.4c1.1-0.1,2.2-0.3,3.3-0.4
	C367.7,568.1,366.6,568.3,365.5,568.4z"/>
<path class="st3" d="M402.2,643.6l32.9-23.1l50.7-37.9c1-0.7,1.9-1.2,2.8-1.4v-0.1c-0.7-0.2-1.3-0.5-2-0.7c-2.3-0.8-4.5-1.5-6.8-2.2
	c-1-0.3-2.1-0.7-3.1-1c-3.3-1-6.6-1.9-10-2.8l-0.3-0.1c-3.3-0.8-6.7-1.6-10-2.3c-1.1-0.2-2.2-0.4-3.3-0.7c-3.7-0.7-7.4-1.4-11-2
	c-2.5-0.4-5-0.7-7.5-1c-1.1-0.1-2.3-0.3-3.4-0.4c-3.6-0.4-7.3-0.8-10.9-1.1h-40.5c-3.7,0.3-7.3,0.6-11,1.1c-1.1,0.1-2.2,0.3-3.3,0.4
	c-2.6,0.3-5.1,0.7-7.6,1.1c-3.7,0.6-7.4,1.2-11.1,2c-1,0.2-2.1,0.4-3.1,0.6c-6.9,1.4-13.7,3.2-20.4,5.2c-1,0.3-2,0.6-2.9,0.9
	c-2.4,0.7-4.7,1.5-7,2.3c-0.7,0.2-1.3,0.5-2,0.7l0.1,0.2c0.7,0.2,1.5,0.6,2.3,1.2l51,37.9l32.8,23.1c0.8,0,1.6,0.1,2.4,0.1
	C400.7,643.7,401.5,643.6,402.2,643.6L402.2,643.6z"/>
<path class="st4" d="M368.9,302.2c38.8,68.5,169.4,113.6,219.2,82.5l0.2-0.1c3.3-62.4-24.1-112.4-62.3-146
	c-15.9-14-33.8-25.4-53.2-33.8c-22.1-9.6-44.8-14.6-65.5-14.4c-2.5,0-5,0.1-7.5,0.3C406.2,213.7,393.2,259.6,368.9,302.2
	L368.9,302.2z"/>
<path class="st5" d="M368.9,302.2c24.3-42.6,37.3-88.5,30.8-111.6c-2.4-0.2-4.8-0.3-7.3-0.3c-25.9-0.2-55,7.6-82.1,22.5
	c-0.8,0.4-1.5,0.9-2.3,1.3c-1.7,1-3.4,1.9-5.1,2.9s-3.4,2.1-5.1,3.2c-0.9,0.6-1.8,1.1-2.7,1.7c-0.9,0.6-1.8,1.2-2.6,1.8
	c-47.6,32.9-84.9,88.5-81.1,160.7c0.1,0.1,0.2,0.1,0.3,0.2C271.5,422,332.8,365.7,368.9,302.2z"/>
</svg>
