<?xml version="1.0" encoding="utf-8"?>
<!-- Generator: Adobe Illustrator 24.1.1, SVG Export Plug-In . SVG Version: 6.00 Build 0)  -->
<svg version="1.1" id="레이어_1" xmlns="http://www.w3.org/2000/svg" xmlns:xlink="http://www.w3.org/1999/xlink" x="0px"
	 y="0px" viewBox="0 0 800 800" style="enable-background:new 0 0 800 800;" xml:space="preserve">
<style type="text/css">
	.st0{fill:#A0D9F6;}
	.st1{fill:#F8F7F8;}
	.st2{fill:#FCE9EA;}
	.st3{fill:#CFE07D;}
	.st4{fill:#ED7667;}
	.st5{fill:#FBCE77;}
	.st6{fill:#F7B970;}
</style>
<path class="st0" d="M575.1,414.7c-0.1,8.4-0.3,17-0.3,25.7c0,14-1.3,27.1-3.8,39.3C575.3,459.8,576.5,438.7,575.1,414.7z
	 M231.4,440.1c0-6.4-0.1-12.7-0.2-18.9C231.2,427.6,231.2,433.9,231.4,440.1z M425.7,608.5c0.3,0,0.5-0.1,0.8-0.1
	c-0.5,0.1-1.1,0.1-1.6,0.2L425.7,608.5z M570.3,482.7c0.2-0.8,0.4-1.5,0.5-2.3C570.7,481.2,570.5,481.9,570.3,482.7z"/>
<path class="st1" d="M400.9,0.8C180.5,0.8,1.8,179.5,1.8,399.9c0,147.3,79.9,276,198.6,345.1c13.3-37.4,35.8-67.1,63.9-89.1
	c17.5-13.8,37.5-24.9,59.6-32.8c-46.4-40.4-47.7-51.4-31.8-49.9c-23.1-18-41.5-42.6-51.7-73.9c3.7,11.7,8.7,22.9,15.5,33.8
	c-151.8-146.3-39.3-419.9,145.1-323l0,0l0.1,0.1c2.9-1.5,5.8-2.9,8.6-4.3c0.6-0.3,1.2-0.5,1.8-0.8c2.2-1,4.5-2,6.7-2.9
	c0.1-0.1,0.3-0.1,0.4-0.1c118.3-48,205.6,60.1,202.8,176c-0.9,55.5-22.3,112.4-70.6,154c0.1-0.3,0.3-0.5,0.4-0.8
	c-10.5,17.5-24,32.1-39.6,43.7c8,2.6,4.6,15.6-22.3,48.3h-0.2c21.9,7.9,41.9,19,59.3,32.8c26.6,20.9,48.3,48.8,61.7,83.6
	C724.1,669.4,800,543.5,800,399.9C800,179.5,621.3,0.8,400.9,0.8L400.9,0.8z"/>
<path class="st2" d="M548.5,656.1c27.4,21.7,48.5,50.2,61.7,83.6c0,0,0.1,0,0.1-0.1C596.8,704.8,575.1,677,548.5,656.1L548.5,656.1z
	 M424.8,608.5c0.5-0.1,1.1-0.1,1.6-0.2c8.3-2.5,69.4-38.6,85.3-33.4c15.5-11.6,29.1-26.2,39.6-43.7c8.9-16,15.1-31.9,19-48.6
	c0.2-0.8,0.4-1.5,0.5-2.3c0.1-0.2,0.1-0.5,0.1-0.7c2.5-12.2,3.8-25.3,3.8-39.3c0-8.7,0.2-17.3,0.3-25.7c-0.6-10.7-1.7-21.9-3.2-33.9
	c-75.3,4.6-128.7-22-170.9-64.4c-59.2,40.3-115.5,63.5-168.3,64.4c-0.8,14.3-1.3,27.6-1.5,40.4c0.1,6.2,0.2,12.5,0.2,18.9
	c0.7,21.5,3.2,41.1,9,59.3c10.3,31.3,28.6,55.9,51.7,73.9c24.7,2.4,91,34.7,95.3,34.3C402.6,609.5,409.8,609,424.8,608.5
	L424.8,608.5z M264.3,655.9c-28,22-50.6,51.7-63.9,89.1l0,0C213.4,709.2,235.4,678.8,264.3,655.9L264.3,655.9z"/>
<path class="st3" d="M548.5,656.1c-17.4-13.8-37.3-24.8-59.3-32.8L324,623.2l-0.1-0.1c-22.1,7.9-42.1,19-59.6,32.8
	c-28.9,22.9-50.9,53.2-63.9,89.1c58.9,34.3,127.4,53.9,200.4,53.9c76.7,0,148.4-21.7,209.3-59.2
	C597.1,706.2,575.9,677.8,548.5,656.1L548.5,656.1z"/>
<path class="st4" d="M324,623.2l165.2,0.1h0.2c26.9-32.7,30.2-45.7,22.3-48.3c-15.9-5.2-77,30.9-85.3,33.4c-0.2,0.1-0.5,0.1-0.8,0.1
	h-0.9c-15,0.5-22.1,1-37.3-0.9c-4.4,0.4-70.6-32-95.3-34.3C276.1,571.8,277.5,582.8,324,623.2C324,623.1,324,623.2,324,623.2
	L324,623.2z"/>
<path class="st5" d="M418.3,202.1c0.1-0.1,0.3-0.1,0.4-0.1L418.3,202.1z M231.2,421.2c0.1-12.7,0.7-26.1,1.5-40.4
	c52.7-0.9,109.1-24.1,168.3-64.4V210.1c-184.4-96.9-296.9,176.6-145.1,323c-6.8-10.8-11.8-22-15.5-33.8c-5.8-18.2-8.3-37.7-9-59.3
	C231.2,433.8,231.2,427.5,231.2,421.2L231.2,421.2z M409.7,205.9c0.6-0.3,1.2-0.5,1.8-0.8C410.9,205.3,410.3,205.6,409.7,205.9z
	 M550.9,532.1c48.3-41.6,69.7-98.6,70.6-154C620.1,432.8,598.7,489.4,550.9,532.1z"/>
<path class="st6" d="M401,316.4c42.2,42.4,95.6,69,170.9,64.4c1.5,12,2.6,23.2,3.2,33.9c1.4,24,0.2,45.1-4.1,65
	c0,0.2-0.1,0.5-0.1,0.7c-0.2,0.8-0.4,1.6-0.5,2.3c-3.9,16.7-10.1,32.5-19,48.6c-0.1,0.3-0.3,0.5-0.4,0.8
	c47.8-42.7,69.3-99.2,70.6-154c2.8-116-84.5-224.1-202.8-176c-0.1,0.1-0.3,0.1-0.4,0.1c-2.2,0.9-4.5,1.9-6.7,2.9
	c-0.6,0.3-1.2,0.5-1.8,0.8c-2.9,1.4-5.8,2.8-8.6,4.3L401,210V316.4L401,316.4z"/>
</svg>
