<?xml version="1.0" encoding="utf-8"?>
<!-- Generator: Adobe Illustrator 24.1.1, SVG Export Plug-In . SVG Version: 6.00 Build 0)  -->
<svg version="1.1" id="레이어_1" xmlns="http://www.w3.org/2000/svg" xmlns:xlink="http://www.w3.org/1999/xlink" x="0px"
	 y="0px" viewBox="0 0 800 800" style="enable-background:new 0 0 800 800;" xml:space="preserve">
<style type="text/css">
	.st0{fill:#F8F7F8;}
	.st1{fill:#FCE9EA;}
	.st2{fill:#C4BFFF;}
	.st3{fill:#B2ABFF;}
	.st4{fill:#3B9CBD;}
	.st5{fill:#FEFEFE;}
</style>
<path class="st0" d="M400,0.1C179.1,0.1,0,179.2,0,400.1c0,136,68,256.2,171.8,328.5c0,0,0,0,0-0.1h-0.1c0.5-1.8,1.1-3.5,1.6-5.2
	c0.2-0.6,0.4-1.2,0.6-1.9c2.1-6.6,4.5-13.1,7.3-19.4c0.3-0.6,0.6-1.3,0.8-1.9c2.5-5.7,5.3-11.4,8.3-16.9c0.3-0.6,0.6-1.1,0.9-1.7
	c3.2-5.8,6.8-11.5,10.5-17.1c0.4-0.6,0.9-1.3,1.3-1.9c2-2.8,4-5.6,6.2-8.4c1.5-2,3.1-3.9,4.7-5.9c0.5-0.6,1-1.2,1.5-1.8
	c4.2-5,8.7-9.7,13.4-14.3c0.7-0.7,1.4-1.3,2.1-2c2.5-2.4,5-4.6,7.6-6.9l0.8-0.7l0,0c18.7-16,40.3-29,64.2-38.4
	c3.3-1.3,6.6-2.5,10-3.7c2.2-0.8,4.5-1.5,6.8-2.2c1-0.3,2.1-0.7,3.1-1c3.3-1,6.7-1.9,10-2.8h0.2c3.4-0.8,6.7-1.6,10.1-2.3
	c1.1-0.2,2.2-0.4,3.2-0.6c3.7-0.7,7.4-1.4,11.1-2c2.5-0.4,5-0.7,7.6-1.1c1.1-0.1,2.2-0.3,3.3-0.4c3.6-0.4,7.3-0.8,11-1.1H400
	c-77.8,0-144.5-47.2-173.3-114.5c-10.2,50.3-71.3,94.1-108.3,79.2c25.2-24.8,4.1-148.8,93.4-147.8c-6.4-123.9,108.6-199,188.2-193.5
	h0.1c79.7-5.4,195,69.6,188.5,193.5c89-0.9,67.9,123.2,93,148c-37,15.1-98.2-29.2-108.1-79.8c-28.6,67.5-95.5,114.9-173.4,114.9
	h20.3c3.7,0.3,7.3,0.6,11,1.1c1.1,0.1,2.2,0.3,3.3,0.4c3.8,0.5,7.5,1,11.3,1.7c2.5,0.4,4.9,0.9,7.3,1.4c1.1,0.2,2.2,0.4,3.3,0.7
	c3.3,0.7,6.6,1.4,9.8,2.3c0.2,0.1,0.4,0.1,0.6,0.2c3.3,0.8,6.5,1.7,9.7,2.7c1.1,0.3,2.3,0.7,3.4,1.1c2.2,0.7,4.3,1.4,6.4,2.1
	c3.3,1.1,6.5,2.3,9.8,3.6c23.7,9.3,45,22,63.6,37.7l0,0c0.3,0.2,0.6,0.5,0.8,0.7c1.5,1.3,3,2.6,4.5,4c0.8,0.7,1.5,1.4,2.3,2.1
	c1.6,1.5,3.1,2.9,4.7,4.4c0.3,0.3,0.6,0.6,0.9,0.9c5.5,5.5,10.7,11.3,15.5,17.3c0.3,0.4,0.7,0.8,1,1.3c1.5,1.9,3,3.9,4.5,5.9
	c0.3,0.4,0.5,0.7,0.8,1.1c14.8,20.4,26.2,43.6,33.5,69C732,656.1,799.9,536,799.9,400C799.9,179.2,620.8,0.1,400,0.1z"/>
<path class="st1" d="M573.4,452.1c8.8-20.9,14-43.7,14.7-67.6c-55.1,34-169.1-24.4-188.2-105c-19,80.8-133.2,139.4-188.2,104.8
	c0.7,24.1,5.9,47.2,14.9,68.2C255.4,519.8,322.2,567,400,567C477.9,567,544.8,519.6,573.4,452.1z"/>
<path class="st2" d="M400,279.5v-89.1C320.4,185,205.4,260,211.8,383.9c-89.3-0.9-68.2,123-93.4,147.8c37,14.9,98.1-28.9,108.3-79.2
	c-9-21-14.2-44-14.9-68.2C266.7,418.8,381,360.3,400,279.5L400,279.5z"/>
<path class="st3" d="M588.1,384.5c-0.7,23.9-5.9,46.7-14.7,67.6c9.9,50.6,71.1,94.9,108.1,79.8c-25.1-24.8-4-148.9-93-148
	C595,260,479.7,184.9,400,190.4h0v89.1C419,360.1,533,418.6,588.1,384.5z"/>
<path class="st4" d="M466.3,574.4c0.2,0.1,0.4,0.1,0.6,0.2C466.7,574.5,466.5,574.4,466.3,574.4z M453.2,571.5
	c1.1,0.2,2.2,0.4,3.3,0.7C455.4,571.9,454.3,571.7,453.2,571.5z M628.3,728.4L628.3,728.4c-7.3-25.5-18.7-48.7-33.5-69
	C609.6,679.8,621,702.9,628.3,728.4z M476.7,577.3c1.1,0.3,2.3,0.7,3.4,1.1C478.9,578,477.8,577.6,476.7,577.3z M559.9,621.8
	c-18.5-15.7-39.9-28.4-63.6-37.7c0.4,0.1,0.7,0.3,1.1,0.4v104.6H301.1v-104c0.8-0.3,1.6-0.6,2.4-1c-24,9.5-45.5,22.4-64.2,38.4
	v143.7c-23.7-10.4-46.3-23.1-67.5-37.8v0.1C236.5,773.6,315.1,800,400,800c58.4,0,113.8-12.5,163.8-35c-1.3,0.6-2.6,1.1-3.9,1.7
	L559.9,621.8L559.9,621.8z M320.2,578.2c1-0.3,2.1-0.7,3.1-1C322.3,577.6,321.3,577.9,320.2,578.2z M213.9,648.3
	c0.5-0.6,1-1.2,1.5-1.8C214.9,647,214.4,647.7,213.9,648.3z M343.7,572.1c1.1-0.2,2.2-0.4,3.2-0.6
	C345.8,571.7,344.7,571.9,343.7,572.1z M333.4,574.5h0.2H333.4z M228.8,632.1c0.7-0.7,1.4-1.3,2.1-2
	C230.2,630.8,229.5,631.5,228.8,632.1z M173.3,723.2c0.2-0.6,0.4-1.2,0.6-1.9C173.7,721.9,173.5,722.5,173.3,723.2z M181.2,701.9
	c0.3-0.6,0.6-1.3,0.8-1.9C181.7,700.6,181.4,701.3,181.2,701.9z M431.2,568c1.1,0.1,2.2,0.3,3.3,0.4
	C433.5,568.3,432.3,568.1,431.2,568z M365.5,568.4c1.1-0.1,2.2-0.3,3.3-0.4C367.8,568.1,366.7,568.3,365.5,568.4z M201.7,664.4
	c0.4-0.6,0.9-1.3,1.3-1.9C202.6,663.1,202.1,663.7,201.7,664.4z M190.3,683.1c0.3-0.6,0.6-1.1,0.9-1.7
	C190.9,682,190.6,682.6,190.3,683.1z"/>
<path class="st5" d="M301.1,689.1h196.3V584.5c-5.7-2.3-11.5-4.3-17.3-6.2c-1.1-0.4-2.3-0.7-3.4-1.1c-3.2-1-6.5-1.9-9.7-2.7
	c-0.2-0.1-0.4-0.1-0.6-0.2c-3.3-0.8-6.5-1.6-9.8-2.3c-1.1-0.2-2.2-0.4-3.3-0.7c-3.7-0.7-7.3-1.4-11-2c-2.5-0.4-5-0.7-7.6-1.1
	c-1.1-0.1-2.2-0.3-3.3-0.4c-3.6-0.4-7.3-0.8-11-1.1H380c-3.7,0.3-7.3,0.6-11,1.1c-1.1,0.1-2.2,0.3-3.3,0.4c-3.8,0.5-7.5,1-11.2,1.7
	c-2.5,0.4-4.9,0.9-7.4,1.4c-1.1,0.2-2.2,0.4-3.2,0.6c-3.4,0.7-6.8,1.5-10.1,2.3h-0.2c-3.4,0.9-6.7,1.8-10,2.8
	c-1.1,0.3-2.1,0.7-3.1,1c-3.4,1.1-6.8,2.2-10.2,3.4c-2.2,0.8-4.4,1.6-6.5,2.5c-0.8,0.3-1.6,0.6-2.4,1L301.1,689.1L301.1,689.1z
	 M400,596.5c6.6,0,11.9,5.3,11.9,11.9c0,6.6-5.3,11.9-11.9,11.9c-6.6-0.1-11.8-5.5-11.7-12.1C388.4,601.8,393.5,596.6,400,596.5z
	 M400,639.6c6.6,0,11.9,5.3,11.9,11.9c0,6.6-5.3,11.9-11.9,11.9l0,0c-6.6-0.2-11.8-5.6-11.6-12.2C388.5,644.8,393.6,639.7,400,639.6
	z M239.2,622.6L239.2,622.6c-0.3,0.2-0.5,0.4-0.8,0.7c-2.6,2.2-5.1,4.5-7.6,6.9c-0.7,0.7-1.4,1.3-2.1,2c-4.7,4.6-9.1,9.3-13.4,14.3
	c-0.5,0.6-1,1.2-1.5,1.8c-3.8,4.6-7.4,9.3-10.9,14.2c-0.4,0.6-0.9,1.3-1.3,1.9c-3.8,5.5-7.3,11.2-10.5,17.1
	c-0.3,0.6-0.6,1.1-0.9,1.7c-3,5.5-5.8,11.1-8.3,16.9c-0.3,0.6-0.6,1.3-0.8,1.9c-2.7,6.4-5.1,12.8-7.3,19.4c-0.2,0.6-0.4,1.2-0.6,1.9
	c-0.5,1.7-1.1,3.5-1.6,5.2c21.2,14.8,43.9,27.5,67.5,37.9L239.2,622.6L239.2,622.6z M594.8,659.4c-0.3-0.4-0.5-0.7-0.8-1.1
	c-1.5-2-2.9-3.9-4.5-5.9l-1-1.3c-4.9-6.1-10-11.8-15.5-17.3c-0.3-0.3-0.6-0.6-0.9-0.9c-1.5-1.5-3.1-3-4.7-4.4
	c-0.8-0.7-1.5-1.4-2.3-2.1c-1.5-1.3-3-2.7-4.5-4c-0.3-0.2-0.5-0.5-0.8-0.7v145c1.3-0.6,2.6-1.1,3.9-1.7l0,0c4.3-1.9,8.5-3.9,12.7-6
	l1.8-0.9c8.4-4.2,16.6-8.6,24.6-13.4l1.1-0.7c8.3-4.9,16.4-10.2,24.4-15.7C621,702.9,609.6,679.8,594.8,659.4z"/>
<path class="st4" d="M388.1,608.4c0,6.6,5.3,11.9,11.9,11.9s11.9-5.3,11.9-11.9l0,0c0-6.6-5.3-11.9-11.9-11.9
	S388.1,601.8,388.1,608.4L388.1,608.4z"/>
<path class="st4" d="M388.1,651.5c0,6.6,5.3,11.9,11.9,11.9s11.9-5.3,11.9-11.9l0,0c0-6.6-5.3-11.9-11.9-11.9
	S388.1,644.9,388.1,651.5L388.1,651.5z"/>
</svg>
