<?xml version="1.0" encoding="utf-8"?>
<!-- Generator: Adobe Illustrator 24.1.1, SVG Export Plug-In . SVG Version: 6.00 Build 0)  -->
<svg version="1.1" id="레이어_1" xmlns="http://www.w3.org/2000/svg" xmlns:xlink="http://www.w3.org/1999/xlink" x="0px"
	 y="0px" viewBox="0 0 800 800" style="enable-background:new 0 0 800 800;" xml:space="preserve">
<style type="text/css">
	.st0{fill:#F8F7F8;}
	.st1{fill:#B0C21E;}
	.st2{fill:#FCE9EA;}
	.st3{fill:#7EA701;}
	.st4{fill:#F08519;}
	.st5{fill:#FEFEFE;}
</style>
<path class="st0" d="M400,0C179.3,0,0.4,179,0.4,399.7c0,135.9,67.9,256,171.6,328.2c0.4-1.5,0.9-3,1.4-4.5c0.3-0.9,0.6-1.9,0.9-2.9
	c1-3.2,2.1-6.4,3.3-9.6c0.1-0.2,0.1-0.3,0.2-0.5c1.1-3,2.3-5.9,3.5-8.8c0.4-0.9,0.8-1.8,1.2-2.7c2.4-5.4,5-10.8,7.8-16
	c0.4-0.7,0.8-1.5,1.2-2.2c3.2-5.8,6.7-11.4,10.4-16.8c0.5-0.7,1-1.4,1.5-2.2c2-2.8,4-5.5,6.1-8.2c0.8-1,1.6-2,2.4-3L212,384h0.1
	c-0.1-1.9-0.1-3.8-0.1-5.7c0-8,0.6-15.8,1.5-23.5c0.1-0.9,0.2-1.8,0.4-2.8c0.2-1.4,0.4-2.7,0.6-4.1c5.2-33.8,19.6-64.2,40.3-89.1
	c34.5-42,86.8-68.8,145.4-68.8c79.8-5.4,195.1,69.8,188.5,193.9c0,0-0.1,0-0.1,0.1l0.1,266.7c0.9,1.1,1.7,2.1,2.5,3.2
	c0.4,0.5,0.8,1,1.2,1.5c1.8,2.3,3.5,4.7,5.2,7.1c0.2,0.3,0.5,0.6,0.7,1c3.9,5.7,7.6,11.6,10.9,17.7l0.3,0.5c1.8,3.2,3.5,6.5,5.1,9.8
	c1.4,2.9,2.7,5.7,4,8.7l0.3,0.7c2.8,6.6,5.3,13.3,7.5,20.1c0.1,0.2,0.1,0.5,0.2,0.7c0.6,2,1.3,4,1.9,6c0,0-0.1,0-0.1,0.1
	c103.7-72.2,171.6-192.3,171.6-328.2C799.7,179,620.8,0,400,0z"/>
<path class="st1" d="M215.7,645.9c2.1-2.5,4.3-4.9,6.5-7.3l0.1-0.1c2.2-2.3,4.4-4.5,6.6-6.7c0.7-0.7,1.5-1.4,2.2-2.1
	c2.5-2.3,5-4.6,7.6-6.8c0.2-0.2,0.4-0.4,0.7-0.6v0c19-16.2,40.9-29.4,65.3-38.9c1.6-0.6,3.2-1.2,4.8-1.8c1.6-0.6,3.2-1.1,4.8-1.7
	c1.6-0.6,3.3-1.1,4.9-1.6c1.6-0.5,3.2-1,4.8-1.5c2-0.6,4-1.1,6-1.7c2.3-0.6,4.7-1.2,7.1-1.8c2.1-0.5,4.2-1,6.3-1.4
	c1.6-0.3,3.2-0.6,4.7-0.9c3.5-0.7,7-1.3,10.5-1.8c2.1-0.3,4.3-0.6,6.5-0.9c1.4-0.2,2.8-0.4,4.2-0.5c3.6-0.4,7.2-0.8,10.8-1h20.2
	v-0.1l-0.1,0c-102,0-185-81.2-188-182.5H212l-0.1,266.5c0.7-0.9,1.5-1.8,2.2-2.7C214.6,647.2,215.1,646.5,215.7,645.9L215.7,645.9z"
	/>
<path class="st2" d="M400,190.3l0.1-0.2c-58.6,0-110.9,26.8-145.4,68.8C290.1,216.3,343.7,189.9,400,190.3z M213.7,352
	c0.2-1.4,0.4-2.7,0.6-4.1C214.1,349.3,213.9,350.6,213.7,352z M400,566.5l0.1,0c101.9-0.1,184.7-81.1,187.9-182.2
	c-50,30.7-180.2-14.3-218.8-82.7c-53.8,88.6-107.2,112.3-156.9,82.3c-0.4-9.7-0.1-19.5,1.1-29.2c-1,7.8-1.5,15.7-1.5,23.5
	c0,1.9,0.1,3.8,0.1,5.7C215,485.3,298,566.5,400,566.5L400,566.5z"/>
<path class="st3" d="M400,190.3c4.7,32.3-6.6,69.7-30.8,111.3l0,0c38.6,68.4,168.8,113.3,218.8,82.7
	c-3.2,101.1-86,182.1-187.9,182.2v0.1h20.1c3.6,0.3,7.2,0.6,10.7,1c1.4,0.2,2.8,0.4,4.2,0.5c2.1,0.3,4.3,0.6,6.4,0.9
	c1.6,0.2,3.2,0.5,4.8,0.8c1.9,0.3,3.8,0.7,5.7,1.1c1.6,0.3,3.2,0.6,4.8,1c2,0.4,4,0.9,6,1.4c2.6,0.6,5.1,1.3,7.7,1.9
	c1.9,0.5,3.7,1,5.6,1.6c1.7,0.5,3.3,1,5,1.6c1.6,0.5,3.2,1,4.7,1.5c1.7,0.6,3.3,1.2,4.9,1.7c1.6,0.6,3.1,1.2,4.6,1.8
	c23.9,9.3,45.5,22.1,64.3,38v-0.1c0.6,0.5,1.3,1.1,1.9,1.7c2.6,2.3,5.2,4.6,7.7,7c0.6,0.5,1.2,1.1,1.7,1.6
	c4.8,4.7,9.3,9.5,13.6,14.6c0.3,0.4,0.6,0.7,0.9,1.1c1,1.2,1.9,2.3,2.9,3.5l-0.1-266.7l0.1-0.1c6.6-124.1-108.6-199.3-188.5-193.9
	L400,190.3L400,190.3L400,190.3z"/>
<path class="st4" d="M559.7,621.2c-18.7-15.8-40.3-28.7-64.3-38c0.6,0.2,1.2,0.5,1.8,0.7v104.6H301.1V584.7c1.2-0.5,2.3-0.9,3.5-1.4
	c-24.4,9.5-46.3,22.6-65.3,38.9v143.5c49.2,21.6,103.5,33.7,160.7,33.7c63.6,0,123.7-14.9,177.1-41.3c-5.7,2.8-11.5,5.5-17.4,8
	L559.7,621.2L559.7,621.2z M618.3,700.2l0.3,0.7L618.3,700.2z M577.3,758L577.3,758z M626.2,721.1c0.1,0.2,0.1,0.5,0.2,0.7
	C626.3,721.5,626.2,721.3,626.2,721.1z M201.9,663.9c0.5-0.7,1-1.4,1.5-2.2C202.9,662.5,202.4,663.2,201.9,663.9z M177.5,710.9
	c0.1-0.2,0.1-0.3,0.2-0.5C177.7,710.6,177.6,710.7,177.5,710.9z M173.4,723.3c0.3-0.9,0.6-1.9,0.9-2.9
	C173.9,721.4,173.6,722.4,173.4,723.3z M190.3,683c0.4-0.7,0.8-1.5,1.2-2.2C191.1,681.5,190.7,682.2,190.3,683z M181.3,701.6
	c0.4-0.9,0.8-1.8,1.2-2.7C182.1,699.8,181.7,700.7,181.3,701.6z M609,681.2l0.3,0.5C609.2,681.6,609.1,681.4,609,681.2z M591,653.9
	c0.4,0.5,0.8,1,1.2,1.5C591.8,654.9,591.4,654.4,591,653.9z M597.4,662.6c0.2,0.3,0.5,0.6,0.7,1
	C597.8,663.2,597.6,662.9,597.4,662.6z M343.3,571.8c1.6-0.3,3.2-0.6,4.7-0.9C346.5,571.1,344.9,571.4,343.3,571.8z M365,568.1
	c1.4-0.2,2.8-0.4,4.2-0.5C367.8,567.7,366.4,567.9,365,568.1z M222.3,638.4l-0.1,0.1L222.3,638.4z M228.9,631.7
	c0.7-0.7,1.5-1.4,2.2-2.1C230.4,630.3,229.7,631,228.9,631.7z M215.7,645.9c-0.5,0.6-1.1,1.3-1.6,2
	C214.6,647.2,215.1,646.5,215.7,645.9z M319.2,578.2c1.6-0.5,3.2-1,4.8-1.5C322.4,577.2,320.8,577.7,319.2,578.2z M569.4,629.9
	c0.6,0.5,1.2,1.1,1.7,1.6C570.5,631,569.9,630.4,569.4,629.9z M431.1,567.6c1.4,0.2,2.8,0.4,4.2,0.5
	C433.9,567.9,432.5,567.7,431.1,567.6z M476.2,576.7c1.7,0.5,3.3,1,5,1.6C479.5,577.7,477.9,577.2,476.2,576.7z M585.7,647.2
	c-0.3-0.4-0.6-0.7-0.9-1.1C585,646.5,585.3,646.8,585.7,647.2z M452.1,570.8c1.6,0.3,3.2,0.6,4.8,1
	C455.4,571.4,453.8,571.1,452.1,570.8z"/>
<path class="st5" d="M485.9,579.8c-1.6-0.5-3.1-1-4.7-1.5c-1.7-0.5-3.3-1.1-5-1.6c-1.8-0.5-3.7-1-5.6-1.6c-2.5-0.7-5.1-1.3-7.7-1.9
	c-2-0.5-4-0.9-6-1.4c-1.6-0.3-3.2-0.6-4.8-1c-3.5-0.7-7-1.3-10.5-1.8c-2.1-0.3-4.3-0.6-6.4-0.9c-1.4-0.2-2.8-0.4-4.2-0.5
	c-3.6-0.4-7.2-0.8-10.7-1h-40.4c-3.6,0.3-7.2,0.6-10.8,1c-1.4,0.2-2.8,0.3-4.2,0.5c-3.7,0.5-7.5,1-11.2,1.7
	c-1.9,0.3-3.9,0.7-5.8,1.1c-1.6,0.3-3.2,0.6-4.7,0.9c-4.5,1-8.9,2.1-13.3,3.2c-2,0.5-4,1.1-6,1.7c-1.6,0.5-3.2,1-4.8,1.5
	c-1.6,0.5-3.3,1.1-4.9,1.6c-1.6,0.5-3.2,1.1-4.8,1.7c-1.6,0.6-3.2,1.2-4.8,1.8c-1.2,0.5-2.3,0.9-3.5,1.4v103.9h196.2V584l-1.8-0.7
	c-1.5-0.6-3.1-1.2-4.6-1.8C489.2,580.9,487.6,580.3,485.9,579.8L485.9,579.8z M400,662.9c-6.6,0-11.9-5.3-11.9-11.9
	c0-6.6,5.3-11.9,11.9-11.9s11.9,5.3,11.9,11.9C411.9,657.6,406.6,662.9,400,662.9L400,662.9z M400,619.8c-6.6,0-11.9-5.3-11.9-11.9
	s5.3-11.9,11.9-11.9s11.9,5.3,11.9,11.9S406.6,619.8,400,619.8L400,619.8z M239.3,622.2L239.3,622.2l-0.7,0.5
	c-2.6,2.2-5.1,4.5-7.6,6.8c-0.7,0.7-1.5,1.4-2.2,2.1c-2.3,2.2-4.5,4.4-6.6,6.7l-0.1,0.1c-2.2,2.4-4.4,4.8-6.5,7.3
	c-0.5,0.6-1.1,1.3-1.6,2c-0.7,0.9-1.5,1.8-2.2,2.7c-0.8,1-1.6,2-2.4,3c-2.1,2.7-4.1,5.5-6.1,8.2c-0.5,0.7-1,1.4-1.5,2.2
	c-3.7,5.4-7.2,11.1-10.4,16.8c-0.4,0.7-0.8,1.5-1.2,2.2c-1.7,3.1-3.3,6.2-4.8,9.4c-1,2.2-2,4.4-3,6.6c-0.4,0.9-0.8,1.8-1.2,2.7
	c-1.2,2.9-2.4,5.8-3.5,8.8c-0.1,0.2-0.1,0.3-0.2,0.5c-1.2,3.2-2.3,6.4-3.3,9.6c-0.3,0.9-0.6,1.9-0.9,2.9c-0.5,1.5-1,3-1.4,4.5l1,0.7
	c3.4,2.4,6.9,4.7,10.4,7c0.4,0.2,0.7,0.5,1.1,0.7c3.5,2.2,7,4.4,10.6,6.5c4.2,2.5,8.4,4.9,12.6,7.2c5.8,3.2,11.7,6.2,17.6,9.1
	c2.9,1.4,5.8,2.8,8.7,4.1c1.8,0.8,3.6,1.6,5.4,2.4L239.3,622.2L239.3,622.2z M628.2,727.8c-0.6-2-1.2-4-1.9-6
	c-0.1-0.2-0.1-0.5-0.2-0.7c-2.2-6.8-4.7-13.5-7.5-20.1l-0.3-0.7c-1.3-2.9-2.6-5.8-4-8.7l-0.6-1.3c-1.4-2.9-2.9-5.7-4.5-8.6l-0.3-0.5
	c-3.4-6.1-7-12-10.9-17.7c-0.2-0.3-0.5-0.6-0.7-1c-1.7-2.4-3.4-4.8-5.2-7.1c-0.4-0.5-0.8-1-1.2-1.5c-0.8-1.1-1.7-2.2-2.5-3.2
	c-0.9-1.2-1.9-2.3-2.9-3.5c-0.3-0.4-0.6-0.7-0.9-1.1c-4.3-5.1-8.9-9.9-13.6-14.6c-0.6-0.6-1.2-1.1-1.7-1.6c-2.5-2.4-5.1-4.7-7.7-7
	c-0.6-0.6-1.3-1.1-1.9-1.7v144.9c5.9-2.6,11.8-5.3,17.6-8.1C595,749.2,612,739.1,628.2,727.8L628.2,727.8L628.2,727.8z"/>
<path class="st4" d="M388.2,608c0,6.6,5.3,11.9,11.9,11.9s11.9-5.3,11.9-11.9c0,0,0,0,0,0c0-6.6-5.3-11.9-11.9-11.9
	C393.5,596.1,388.2,601.4,388.2,608L388.2,608z"/>
<path class="st4" d="M388.2,651c0,6.6,5.3,11.9,11.9,11.9c6.6,0,11.9-5.3,11.9-11.9c0,0,0,0,0,0c0-6.6-5.3-11.9-11.9-11.9
	C393.5,639.1,388.2,644.4,388.2,651L388.2,651z"/>
<path class="st1" d="M212.3,383.9c49.7,30,103.1,6.3,156.9-82.3l0,0c24.2-41.6,35.5-79,30.8-111.3H400
	c-56.2-0.4-109.9,26-145.3,68.6c-20.7,24.8-35.1,55.2-40.3,89.1c-0.2,1.3-0.4,2.7-0.6,4.1c-0.1,0.9-0.2,1.8-0.4,2.8
	C212.3,364.4,211.9,374.2,212.3,383.9z"/>
</svg>
