<?xml version="1.0" encoding="utf-8"?>
<!-- Generator: Adobe Illustrator 24.1.1, SVG Export Plug-In . SVG Version: 6.00 Build 0)  -->
<svg version="1.1" id="레이어_1" xmlns="http://www.w3.org/2000/svg" xmlns:xlink="http://www.w3.org/1999/xlink" x="0px"
	 y="0px" viewBox="0 0 800 800" style="enable-background:new 0 0 800 800;" xml:space="preserve">
<style type="text/css">
	.st0{fill:#F8F7F8;}
	.st1{fill:#D5ECF7;}
	.st2{fill:#FCE9EA;}
	.st3{fill:#C1E5F9;}
	.st4{fill:#AAAAAA;}
	.st5{fill:#FEFEFE;}
</style>
<path class="st0" d="M400,0C179.1,0,0,179.1,0,400c0,136.1,68,256.2,171.8,328.5c4.3-15,10.2-29.6,17.5-43.4
	c-20.9-5.5-34.6-26.2-31-48c2.8-17.1,15.5-30,31.3-34.1c-13.6-9-21.4-25.3-18.5-42.4c2.8-17.1,15.5-30,31.3-34.1
	c-13.6-9-21.4-25.3-18.5-42.4c2.5-15.3,13.3-28.1,28-33.2v-3.4c-11.5-9.3-17.9-24.4-15.3-40c1.7-10.3,7.1-19.6,15.3-26.1
	c0-1-0.1-1.9-0.1-2.9c0-16.7,2.2-32.8,6.3-48.2c5.2-20.9,14.1-39.8,25.5-56.4c20.7-30.8,50-54.9,84.2-69.2
	c24.7-10.8,50.2-15.9,72.9-14.4c76.4-4.8,184.6,63.6,188.2,177.9c8.1,6.5,13.5,15.8,15.2,26c2.6,15.7-3.8,30.8-15.4,40.1v3.2
	c14.8,5.1,25.6,17.8,28.1,33.2c2.8,17.1-5,33.4-18.5,42.4c15.7,4.1,28.4,17,31.3,34.1c2.8,17.1-5,33.4-18.5,42.4
	c15.7,4.1,28.4,17,31.3,34.1c3.8,23.1-11.8,45-34.9,48.9c-1.1,0.2-2.1,0.3-3.2,0.4c10.4,16.9,18.6,35.5,24.3,55.5
	C732.1,656.1,800,536,800,400C800,179.1,620.9,0,400,0z"/>
<path class="st1" d="M234.4,626.9L234.4,626.9c0.7-0.8,1.5-1.4,2.2-2.1l1.2-1.1c2.3-2,4.7-4,7.1-5.9l0.7-0.5
	c5.4-4.3,11-8.3,16.8-12.1c0.4-0.2,0.7-0.5,1.1-0.7c2.5-1.6,5-3.2,7.6-4.7c0.6-0.3,1.1-0.7,1.7-1c2.6-1.5,5.2-2.9,7.8-4.3
	c0.4-0.2,0.8-0.4,1.2-0.7c6.2-3.2,12.6-6.1,19-8.8c0.6-0.2,1.2-0.5,1.8-0.7c6-2.4,12.1-4.6,18.3-6.5c0.7-0.2,1.4-0.5,2.2-0.7
	c6.8-2,13.7-3.8,20.7-5.3c0.9-0.2,1.9-0.4,2.8-0.6c6.3-1.3,12.6-2.3,19-3.1c1.1-0.1,2.1-0.3,3.2-0.4c3.7-0.4,7.3-0.8,11-1.1H400
	c-103,0-186.7-82.8-188.3-185.4c-8.1,6.5-13.6,15.8-15.3,26.1c-2.6,15.7,3.7,30.7,15.3,40v3.4c-14.7,5.1-25.4,17.8-28,33.2
	c-2.8,17.1,5,33.4,18.5,42.4c-15.7,4.1-28.4,17-31.3,34.1c-2.8,17.1,5,33.4,18.5,42.4c-15.7,4.1-28.4,17-31.3,34.1
	c-3.6,21.8,10,42.4,31,48C200.8,663.2,216.1,643.6,234.4,626.9L234.4,626.9z M400.2,566.9H400H400.2z"/>
<path class="st2" d="M327.7,204.7c-34.3,14.3-63.6,38.4-84.2,69.2C265.1,242.2,295.7,218.7,327.7,204.7z M400,566.9h0.2
	c102-0.1,184.9-81.2,188-182.4c-49.8,30.6-179-13.8-218.4-81.6c-36.3,63.2-97.5,118.8-156.9,81.4c-1-19.2,0.9-37.2,5.1-53.9
	c-4.2,15.7-6.3,32-6.3,48.2c0,1,0.1,1.9,0.1,2.9C213.3,484.1,297,566.9,400,566.9z"/>
<path class="st3" d="M369.8,302.8c39.4,67.8,168.6,112.2,218.4,81.6c-3.1,101.2-86,182.3-188,182.4l0,0h20.1c3.7,0.3,7.3,0.6,11,1.1
	c1.1,0.1,2.2,0.3,3.3,0.4c3.7,0.5,7.5,1,11.2,1.6c2.5,0.4,5.1,0.9,7.6,1.4c1,0.2,2,0.4,3,0.6c7,1.5,13.9,3.2,20.6,5.2
	c0.8,0.3,1.7,0.5,2.5,0.8c3.5,1.1,6.9,2.2,10.3,3.5c2.5,0.9,5,1.9,7.5,2.9c0.7,0.3,1.4,0.6,2.2,0.9c6.4,2.6,12.7,5.5,18.8,8.7
	c0.6,0.3,1.1,0.6,1.7,0.9c5.6,3,11.1,6.2,16.5,9.6c0.5,0.3,1,0.6,1.5,0.9c5.7,3.7,11.2,7.7,16.5,11.9c0.4,0.3,0.8,0.7,1.2,1
	c2.8,2.2,5.5,4.5,8.1,6.9c0.6,0.5,1.1,1,1.7,1.5v0.1c15,13.6,28,29.2,38.6,46.3c1.1-0.1,2.1-0.2,3.2-0.4
	c23.1-3.9,38.8-25.7,34.9-48.9c-2.8-17.1-15.5-30-31.3-34.1c13.6-9,21.4-25.3,18.5-42.4c-2.8-17.1-15.5-30-31.3-34.1
	c13.6-9,21.4-25.3,18.5-42.4c-2.6-15.9-13.9-28.3-28.1-33.2v-3.2c11.6-9.3,18-24.4,15.4-40.1c-1.7-10.2-7.1-19.5-15.2-26
	c-3.5-114.3-111.8-182.7-188.2-177.9c0.2,0,0.4,0,0.6,0C407.7,213.5,394.5,259.9,369.8,302.8L369.8,302.8z"/>
<path class="st4" d="M565.4,626.6v67.2c-25.8-39.5-130.7-46.8-165.4-5.2c-34.9-41.7-140.5-34.2-165.7,5.8V627
	c-18.3,16.6-33.6,36.3-45.1,58.2c-7.3,13.8-13.2,28.4-17.5,43.4c64.8,45,143.5,71.4,228.3,71.4c84.9,0,163.6-26.5,228.4-71.6
	c-5.7-20-13.9-38.6-24.3-55.5C593.4,655.8,580.4,640.2,565.4,626.6L565.4,626.6z"/>
<path class="st5" d="M563.8,625.1c-2.7-2.4-5.4-4.7-8.1-6.9c-0.4-0.3-0.8-0.7-1.2-1c-5.3-4.2-10.8-8.2-16.5-11.9
	c-0.5-0.3-1-0.6-1.5-0.9c-3-1.9-6.1-3.8-9.2-5.6c-2.4-1.4-4.8-2.7-7.3-4c-0.6-0.3-1.1-0.6-1.7-0.9c-6.1-3.2-12.4-6.1-18.8-8.7
	c-0.7-0.3-1.4-0.6-2.2-0.9c-3.4-1.4-6.8-2.6-10.3-3.8c-2.5-0.9-5-1.7-7.5-2.5c-0.8-0.3-1.7-0.5-2.5-0.8c-6.8-2-13.6-3.8-20.6-5.2
	c-1-0.2-2-0.4-3-0.6c-2.5-0.5-5-1-7.6-1.4c-3.7-0.6-7.5-1.2-11.2-1.6c-1.1-0.1-2.2-0.3-3.3-0.4c-3.6-0.4-7.3-0.8-11-1.1h-40.4
	c-3.7,0.3-7.3,0.6-11,1.1c-1.1,0.1-2.2,0.3-3.2,0.4c-6.4,0.8-12.7,1.8-19,3.1c-0.9,0.2-1.9,0.4-2.8,0.6c-7,1.5-13.9,3.2-20.7,5.3
	c-0.7,0.2-1.4,0.5-2.2,0.7c-2.7,0.8-5.3,1.7-7.9,2.6l-2.5,0.9c-2.7,1-5.3,2-7.9,3c-0.6,0.2-1.2,0.5-1.8,0.7
	c-6.5,2.6-12.8,5.6-19,8.8c-0.4,0.2-0.8,0.4-1.2,0.7c-3.2,1.7-6.4,3.4-9.5,5.3c-2.6,1.5-5.1,3.1-7.6,4.7c-0.4,0.2-0.7,0.5-1.1,0.7
	c-5.8,3.8-11.4,7.8-16.8,12.1l-0.7,0.5c-2.4,1.9-4.8,3.9-7.1,5.9l-1.2,1.1c-0.7,0.7-1.5,1.3-2.2,2v67.5
	c25.2-40,130.9-47.6,165.7-5.8c34.7-41.5,139.5-34.3,165.4,5.2v-67.2C564.9,626,564.3,625.6,563.8,625.1L563.8,625.1z"/>
<path class="st1" d="M212.9,384.2c59.4,37.4,120.6-18.2,156.9-81.4c24.7-42.9,37.9-89.3,31.3-112.6c-0.2,0-0.4,0-0.6,0
	c-22.7-1.4-48.2,3.6-72.9,14.4c-31.9,14-62.6,37.6-84.2,69.2c-11.4,16.7-20.3,35.5-25.5,56.4C213.7,347.1,211.8,365.1,212.9,384.2
	L212.9,384.2z"/>
</svg>
